# xmcd
#
# Track frame offsets:
# 150
# 11347
# 24921
# 40658
# 52482
# 64688
# 77174
# 93559
# 107362
# 121757
# 131612
# 148448
#
# Disc length: 2279 seconds
#
# Revision: 1
# Processed by: cddbd v1.5.1PL0 Copyright (c) Steve Scherf et al.
# Submitted via: CedeCatalogueitor 2.6.0.6 http://personales.ya.com/cdcatalogueitor
#
DISCID=9d08e50c
DTITLE=Texas Tornados - The Best Of
DYEAR=1994
DGENRE=
TTITLE0=Who Were You Thinkin Of?
TTITLE1=(Hey Baby) Que Paso?
TTITLE2=Wasted Days And Wasted Nights
TTITLE3=Guacamole
TTITLE4=La Mucura
TTITLE5=Adios Mexico
TTITLE6=Mentiras
TTITLE7=Is Anybody Goin To San Antone?
TTITLE8=A Mover El Bote
TTITLE9=Una Mas Cerveza
TTITLE10=Soy De San Luis
TTITLE11=Rueda De Fuego (Ring Of Fire)
EXTD=
EXTT0=
EXTT1=
EXTT2=
EXTT3=
EXTT4=
EXTT5=
EXTT6=
EXTT7=
EXTT8=
EXTT9=
EXTT10=
EXTT11=
PLAYORDER=
